<?xml version="1.0" encoding="utf-8"?>
<svg viewBox="502.361 197.279 72.136 72.136" xmlns="http://www.w3.org/2000/svg">
  <path d="M 538.429 197.279 C 531.295 197.279 524.322 199.395 518.391 203.358 C 512.459 207.321 507.837 212.954 505.107 219.545 C 502.377 226.135 501.663 233.387 503.054 240.384 C 504.446 247.38 507.881 253.807 512.925 258.851 C 517.969 263.895 524.396 267.33 531.392 268.722 C 538.389 270.114 545.641 269.399 552.231 266.669 C 558.822 263.94 564.455 259.317 568.418 253.385 C 572.381 247.454 574.497 240.481 574.497 233.347 L 556.463 233.347 C 556.463 236.914 555.405 240.401 553.424 243.366 C 551.442 246.332 548.625 248.643 545.33 250.008 C 542.035 251.373 538.409 251.73 534.911 251.035 C 531.412 250.339 528.199 248.621 525.677 246.099 C 523.155 243.577 521.437 240.364 520.742 236.865 C 520.046 233.367 520.403 229.741 521.768 226.446 C 523.133 223.151 525.444 220.334 528.41 218.353 C 531.376 216.371 534.862 215.313 538.429 215.313 L 538.429 197.279 Z" fill="white"/>
  <path d="M 538.429 197.279 C 533.692 197.279 529.002 198.212 524.626 200.025 C 520.25 201.837 516.274 204.494 512.925 207.843 C 509.576 211.193 506.919 215.169 505.107 219.545 C 503.294 223.921 502.361 228.611 502.361 233.347 L 520.395 233.347 C 520.395 230.979 520.862 228.634 521.768 226.446 C 522.674 224.258 524.002 222.27 525.677 220.595 C 527.352 218.921 529.34 217.592 531.528 216.686 C 533.716 215.78 536.061 215.313 538.429 215.313 L 538.429 197.279 Z" fill="#5CE1E6"/>
  <circle cx="538.429" cy="233.347" r="11.271" fill="#5CE1E6"/>
  <path d="M 549.7 233.347 C 549.7 231.867 549.409 230.401 548.842 229.034 C 548.276 227.666 547.446 226.424 546.399 225.377 C 545.352 224.331 544.11 223.5 542.742 222.934 C 541.375 222.368 539.909 222.076 538.429 222.076 C 536.949 222.076 535.483 222.368 534.116 222.934 C 532.748 223.5 531.506 224.331 530.459 225.377 C 529.412 226.424 528.582 227.666 528.016 229.034 C 527.449 230.401 527.158 231.867 527.158 233.347 L 538.429 233.347 L 549.7 233.347 Z" fill="white"/>
</svg>