<?xml version="1.0" encoding="utf-8"?>
<svg viewBox="524.764 210.185 294.612 72.136" xmlns="http://www.w3.org/2000/svg">
  <path d="M 560.832 210.185 C 553.698 210.185 546.725 212.301 540.794 216.264 C 534.862 220.227 530.24 225.86 527.51 232.451 C 524.78 239.041 524.066 246.293 525.457 253.29 C 526.849 260.286 530.284 266.713 535.328 271.757 C 540.372 276.801 546.799 280.236 553.795 281.628 C 560.792 283.02 568.044 282.305 574.634 279.575 C 581.225 276.846 586.858 272.223 590.821 266.291 C 594.784 260.36 596.9 253.387 596.9 246.253 L 578.866 246.253 C 578.866 249.82 577.808 253.307 575.827 256.272 C 573.845 259.238 571.028 261.549 567.733 262.914 C 564.438 264.279 560.812 264.636 557.314 263.941 C 553.815 263.245 550.602 261.527 548.08 259.005 C 545.558 256.483 543.84 253.27 543.145 249.771 C 542.449 246.273 542.806 242.647 544.171 239.352 C 545.536 236.057 547.847 233.24 550.813 231.259 C 553.779 229.277 557.265 228.219 560.832 228.219 L 560.832 210.185 Z" fill="white"/>
  <path d="M 560.832 210.185 C 556.095 210.185 551.405 211.118 547.029 212.931 C 542.653 214.743 538.677 217.4 535.328 220.749 C 531.979 224.099 529.322 228.075 527.51 232.451 C 525.697 236.827 524.764 241.517 524.764 246.253 L 542.798 246.253 C 542.798 243.885 543.265 241.54 544.171 239.352 C 545.077 237.164 546.405 235.176 548.08 233.501 C 549.755 231.827 551.743 230.498 553.931 229.592 C 556.119 228.686 558.464 228.219 560.832 228.219 L 560.832 210.185 Z" fill="#5CE1E6"/>
  <circle cx="560.832" cy="246.253" r="11.271" fill="#5CE1E6"/>
  <path d="M 572.103 246.253 C 572.103 244.773 571.812 243.307 571.245 241.94 C 570.679 240.572 569.849 239.33 568.802 238.283 C 567.755 237.237 566.513 236.406 565.145 235.84 C 563.778 235.274 562.312 234.982 560.832 234.982 C 559.352 234.982 557.886 235.274 556.519 235.84 C 555.151 236.406 553.909 237.237 552.862 238.283 C 551.815 239.33 550.985 240.572 550.419 241.94 C 549.852 243.307 549.561 244.773 549.561 246.253 L 560.832 246.253 L 572.103 246.253 Z" fill="white"/>
  <text style="fill: rgb(255, 255, 255); font-family: Arial, sans-serif; font-size: 54px; white-space: pre;" x="615.945" y="263.495">Flex</text>
  <text style="fill: rgb(92, 225, 230); font-family: Arial, sans-serif; font-size: 54px; white-space: pre;" x="726.269" y="264.329">Pay</text>
</svg>